<?xml version="1.0" standalone="no"?>
<!DOCTYPE svg PUBLIC "-//W3C//DTD SVG 20010904//EN"
 "http://www.w3.org/TR/2001/REC-SVG-20010904/DTD/svg10.dtd">
<svg version="1.0" xmlns="http://www.w3.org/2000/svg"
 width="700.000000pt" height="700.000000pt" viewBox="0 0 700.000000 700.000000"
 preserveAspectRatio="xMidYMid meet">
<metadata>
Created by potrace 1.14, written by Peter Selinger 2001-2017
</metadata>
<g transform="translate(0.000000,700.000000) scale(0.100000,-0.100000)"
fill="#000000" stroke="none">
<path d="M4065 6541 c-36 -16 -92 -71 -295 -291 -18 -19 -87 -93 -154 -164
-66 -71 -128 -136 -136 -146 -8 -9 -67 -72 -130 -140 -63 -67 -124 -132 -135
-144 -26 -28 -117 -126 -277 -296 -69 -74 -138 -148 -154 -165 -15 -16 -80
-86 -144 -155 -64 -69 -129 -138 -144 -155 -28 -31 -221 -237 -266 -285 -50
-53 -268 -287 -326 -349 -32 -35 -75 -81 -94 -101 -19 -20 -87 -92 -150 -160
-63 -68 -124 -133 -135 -145 -11 -12 -49 -52 -85 -91 -82 -88 -182 -195 -335
-358 -179 -191 -185 -198 -206 -238 -56 -107 -4 -246 109 -296 33 -14 147 -16
1114 -17 592 0 1080 -3 1083 -6 3 -4 -1 -30 -9 -60 -47 -175 -248 -912 -260
-954 -96 -330 -308 -1139 -308 -1175 1 -153 163 -255 306 -191 37 16 91 69
302 297 169 181 255 273 284 304 19 20 85 90 145 155 132 142 140 151 276 296
59 63 121 130 139 149 18 19 84 90 146 156 63 67 122 130 132 141 22 25 236
255 282 303 19 20 85 90 145 155 61 65 125 135 144 154 38 41 244 261 281 301
14 15 52 56 84 91 76 81 168 180 326 348 69 73 133 143 143 155 10 11 71 77
135 145 172 182 181 192 204 236 44 84 15 210 -61 264 -64 46 -31 45 -1163 46
-593 0 -1080 4 -1083 7 -5 4 223 858 320 1198 29 103 156 569 160 590 2 8 24
89 50 180 50 176 57 241 31 300 -46 108 -183 161 -291 111z m-375 -1077 c-23
-77 -190 -690 -195 -714 -3 -13 -13 -53 -65 -240 -66 -237 -112 -405 -115
-418 -2 -9 -11 -40 -19 -69 -17 -63 -14 -139 9 -182 24 -48 81 -97 127 -111
32 -9 271 -12 1005 -12 l964 0 -48 -52 c-26 -28 -71 -76 -99 -106 -29 -30 -61
-65 -71 -76 -10 -12 -71 -77 -135 -146 -64 -68 -129 -137 -144 -154 -15 -16
-81 -86 -147 -157 -66 -70 -127 -136 -136 -146 -9 -10 -70 -76 -137 -147 -67
-71 -132 -141 -145 -155 -13 -15 -76 -82 -139 -149 -63 -67 -126 -134 -139
-149 -13 -14 -75 -80 -137 -146 -62 -66 -127 -136 -144 -155 -18 -19 -89 -96
-159 -170 -69 -74 -151 -162 -182 -195 -113 -122 -152 -160 -146 -142 4 10 14
46 23 80 8 34 47 177 86 317 38 140 76 278 83 305 8 28 54 199 104 380 49 182
99 366 111 410 38 141 5 234 -102 288 l-56 29 -972 0 -972 -1 23 26 c13 14 35
37 49 52 92 98 386 413 426 456 15 17 81 88 147 158 67 71 128 137 137 146 8
10 69 76 135 146 158 168 170 181 240 256 183 197 447 479 485 520 19 20 59
63 89 95 30 33 105 113 166 179 62 66 134 143 161 172 27 28 50 51 51 49 2 -1
-6 -34 -17 -72z"/>
</g>
</svg>
